#N canvas 237 46 777 596 10;
#X msg 53 485 send /visual/pos dio \$1 \$2;
#X obj 53 460 pack f f;
#X floatatom 99 411 5 0 1 0 - - -;
#X floatatom 50 412 5 0 1 0 - - -;
#X obj 97 432 t b f;
#X obj 6 44 r \$0-osc;
#X obj 53 512 s \$0-osc;
#X obj 266 461 pack f f;
#X floatatom 312 412 5 0 0 0 - - -;
#X floatatom 263 413 5 0 0 0 - - -;
#X obj 310 433 t b f;
#X obj 266 513 s \$0-osc;
#X msg 266 486 send /visual/size dio \$1 \$2;
#X floatatom 542 410 5 0 255 0 - - -;
#X floatatom 493 411 5 0 255 0 - - -;
#X obj 540 431 t b f;
#X obj 496 511 s \$0-osc;
#X obj 496 459 pack f f f f;
#X floatatom 586 411 5 0 255 0 - - -;
#X obj 584 432 t b f;
#X floatatom 636 411 5 0 255 0 - - -;
#X obj 634 432 t b f;
#X msg 494 361 255;
#X obj 149 141 s \$0-osc;
#X msg 496 484 send /visual/color dio \$1 \$2 \$3 \$4;
#X obj 335 131 s \$0-osc;
#X obj 528 123 s \$0-osc;
#X obj 530 60 tgl 15 0 empty empty empty 0 -6 0 10 -262144 -1 -1 0
1;
#X msg 150 115 send /visual/frame dio \$1;
#X msg 208 83 symbol prev;
#X msg 175 53 symbol next;
#X msg 557 358 0;
#X msg 54 388 1;
#X msg 297 386 0;
#X msg 267 389 0;
#X obj 56 331 s \$0-osc;
#X msg 56 236 symbol next;
#X msg 28 202 symbol prev;
#X obj 337 307 s \$0-osc;
#X msg 337 277 send /visual/file \$1;
#X msg 361 239 symbol test2.txt;
#X msg 312 207 symbol test.txt;
#X msg 56 300 send /visual/group \$1;
#X msg 163 258 symbol g1;
#X obj 555 229 s \$0-osc;
#X floatatom 556 177 5 1 60 0 - - -;
#X msg 554 199 send /visual/framerate \$1;
#X msg 529 97 send /visual/animate s2 \$1;
#X msg 584 150 0;
#N canvas 377 224 450 300 keyboard 0;
#X obj 28 67 print;
#X obj 28 31 dumpOSC 6660;
#X connect 1 0 0 0;
#X restore 260 164 pd keyboard;
#X obj 539 310 s \$0-osc;
#X msg 539 280 send /visual/quit;
#X obj 35 84 sendOSC;
#X msg 84 53 disconnect;
#X msg 337 105 send /visual/visible \$2 \$1;
#X obj 337 78 pack f s;
#X obj 382 53 makefilename bar%d;
#X obj 389 19 hradio 15 1 0 8 empty empty empty 0 -6 0 10 -262144 -1
-1 0;
#X msg 315 14 0;
#X msg 343 34 1;
#X msg 154 214 symbol phatnphunky3;
#X msg 35 18 connect 10.0.101 9990;
#X obj 9 152 sendOSC;
#X msg 18 112 connect localhost 9990;
#X connect 0 0 6 0;
#X connect 1 0 0 0;
#X connect 2 0 4 0;
#X connect 3 0 1 0;
#X connect 4 0 1 0;
#X connect 4 1 1 1;
#X connect 5 0 52 0;
#X connect 5 0 62 0;
#X connect 7 0 12 0;
#X connect 8 0 10 0;
#X connect 9 0 7 0;
#X connect 10 0 7 0;
#X connect 10 1 7 1;
#X connect 12 0 11 0;
#X connect 13 0 15 0;
#X connect 14 0 17 0;
#X connect 15 0 17 0;
#X connect 15 1 17 1;
#X connect 17 0 24 0;
#X connect 18 0 19 0;
#X connect 19 0 17 0;
#X connect 19 1 17 2;
#X connect 20 0 21 0;
#X connect 21 0 17 0;
#X connect 21 1 17 3;
#X connect 22 0 13 0;
#X connect 22 0 14 0;
#X connect 22 0 18 0;
#X connect 22 0 20 0;
#X connect 24 0 16 0;
#X connect 27 0 47 0;
#X connect 28 0 23 0;
#X connect 29 0 28 0;
#X connect 30 0 28 0;
#X connect 31 0 14 0;
#X connect 31 0 13 0;
#X connect 31 0 18 0;
#X connect 32 0 2 0;
#X connect 32 0 3 0;
#X connect 34 0 8 0;
#X connect 34 0 9 0;
#X connect 36 0 42 0;
#X connect 37 0 42 0;
#X connect 39 0 38 0;
#X connect 40 0 39 0;
#X connect 41 0 39 0;
#X connect 42 0 35 0;
#X connect 43 0 42 0;
#X connect 45 0 46 0;
#X connect 46 0 44 0;
#X connect 47 0 26 0;
#X connect 48 0 45 0;
#X connect 51 0 50 0;
#X connect 53 0 52 0;
#X connect 53 0 62 0;
#X connect 54 0 25 0;
#X connect 55 0 54 0;
#X connect 56 0 55 1;
#X connect 57 0 56 0;
#X connect 58 0 55 0;
#X connect 59 0 55 0;
#X connect 60 0 42 0;
#X connect 61 0 52 0;
#X connect 61 0 63 0;
#X connect 63 0 62 0;
